<mxfile host="app.diagrams.net" modified="2023-04-09T08:58:48.499Z" agent="Mozilla/5.0 (Windows NT 10.0; Win64; x64) AppleWebKit/537.36 (KHTML, like Gecko) Chrome/112.0.0.0 Safari/537.36 Edg/112.0.1722.34" etag="G0spCxZaja1xfqUlQgrq" version="21.1.5" type="github">
  <diagram name="第 1 页" id="TaYELQ_xXMeW__DOziYw">
    <mxGraphModel dx="522" dy="490" grid="1" gridSize="10" guides="1" tooltips="1" connect="1" arrows="1" fold="1" page="1" pageScale="1" pageWidth="827" pageHeight="1169" math="0" shadow="0">
      <root>
        <mxCell id="0" />
        <mxCell id="1" parent="0" />
        <mxCell id="d96rSbsweA4EqB9IWG7h-1" value="&lt;b&gt;&lt;u&gt;:User&lt;/u&gt;&lt;/b&gt;" style="shape=umlActor;verticalLabelPosition=bottom;verticalAlign=top;html=1;" vertex="1" parent="1">
          <mxGeometry x="230" y="170" width="30" height="60" as="geometry" />
        </mxCell>
        <mxCell id="d96rSbsweA4EqB9IWG7h-4" style="rounded=0;orthogonalLoop=1;jettySize=auto;html=1;exitX=1;exitY=0.5;exitDx=0;exitDy=0;endArrow=None;" edge="1" parent="1" source="d96rSbsweA4EqB9IWG7h-2" target="d96rSbsweA4EqB9IWG7h-1">
          <mxGeometry relative="1" as="geometry" />
        </mxCell>
        <mxCell id="d96rSbsweA4EqB9IWG7h-2" value="&lt;b&gt;&lt;u&gt;:LoginSys&lt;/u&gt;&lt;/b&gt;" style="html=1;whiteSpace=wrap;" vertex="1" parent="1">
          <mxGeometry y="175" width="110" height="50" as="geometry" />
        </mxCell>
        <mxCell id="d96rSbsweA4EqB9IWG7h-5" value="2.注册成功&lt;br&gt;4.登录成功" style="html=1;verticalAlign=bottom;endArrow=block;edgeStyle=elbowEdgeStyle;elbow=vertical;curved=0;rounded=0;" edge="1" parent="1">
          <mxGeometry width="80" relative="1" as="geometry">
            <mxPoint x="130" y="180" as="sourcePoint" />
            <mxPoint x="210" y="180" as="targetPoint" />
          </mxGeometry>
        </mxCell>
        <mxCell id="d96rSbsweA4EqB9IWG7h-6" value="1.注册信息&lt;br&gt;3. 登录" style="html=1;verticalAlign=bottom;endArrow=block;edgeStyle=elbowEdgeStyle;elbow=vertical;curved=0;rounded=0;" edge="1" parent="1">
          <mxGeometry y="40" width="80" relative="1" as="geometry">
            <mxPoint x="210" y="220" as="sourcePoint" />
            <mxPoint x="130" y="220" as="targetPoint" />
            <mxPoint as="offset" />
          </mxGeometry>
        </mxCell>
        <mxCell id="d96rSbsweA4EqB9IWG7h-10" style="edgeStyle=orthogonalEdgeStyle;rounded=0;orthogonalLoop=1;jettySize=auto;html=1;exitX=0.5;exitY=0;exitDx=0;exitDy=0;endArrow=None;" edge="1" parent="1" source="d96rSbsweA4EqB9IWG7h-9">
          <mxGeometry relative="1" as="geometry">
            <mxPoint x="245" y="260" as="targetPoint" />
            <Array as="points">
              <mxPoint x="245" y="300" />
              <mxPoint x="245" y="300" />
            </Array>
          </mxGeometry>
        </mxCell>
        <mxCell id="d96rSbsweA4EqB9IWG7h-14" style="rounded=0;orthogonalLoop=1;jettySize=auto;html=1;exitX=1;exitY=0;exitDx=0;exitDy=0;entryX=0;entryY=1;entryDx=0;entryDy=0;endArrow=None;" edge="1" parent="1" source="d96rSbsweA4EqB9IWG7h-9" target="d96rSbsweA4EqB9IWG7h-13">
          <mxGeometry relative="1" as="geometry" />
        </mxCell>
        <mxCell id="d96rSbsweA4EqB9IWG7h-9" value="&lt;b&gt;&lt;u&gt;:FlightController&lt;/u&gt;&lt;/b&gt;" style="html=1;whiteSpace=wrap;" vertex="1" parent="1">
          <mxGeometry x="190" y="390" width="110" height="50" as="geometry" />
        </mxCell>
        <mxCell id="d96rSbsweA4EqB9IWG7h-11" value="5.查看航班信息&lt;br&gt;7.订票" style="html=1;verticalAlign=bottom;endArrow=block;edgeStyle=elbowEdgeStyle;elbow=vertical;curved=0;rounded=0;" edge="1" parent="1">
          <mxGeometry x="-0.2" y="-50" width="80" relative="1" as="geometry">
            <mxPoint x="220" y="280" as="sourcePoint" />
            <mxPoint x="220" y="380" as="targetPoint" />
            <mxPoint as="offset" />
          </mxGeometry>
        </mxCell>
        <mxCell id="d96rSbsweA4EqB9IWG7h-12" value="6.显示信息" style="html=1;verticalAlign=bottom;endArrow=block;edgeStyle=elbowEdgeStyle;elbow=vertical;curved=0;rounded=0;" edge="1" parent="1">
          <mxGeometry x="0.4" y="-40" width="80" relative="1" as="geometry">
            <mxPoint x="270" y="380" as="sourcePoint" />
            <mxPoint x="270" y="280" as="targetPoint" />
            <mxPoint as="offset" />
          </mxGeometry>
        </mxCell>
        <mxCell id="d96rSbsweA4EqB9IWG7h-17" style="rounded=0;orthogonalLoop=1;jettySize=auto;html=1;exitX=0;exitY=0;exitDx=0;exitDy=0;endArrow=None;" edge="1" parent="1" source="d96rSbsweA4EqB9IWG7h-13">
          <mxGeometry relative="1" as="geometry">
            <mxPoint x="280" y="210" as="targetPoint" />
          </mxGeometry>
        </mxCell>
        <mxCell id="d96rSbsweA4EqB9IWG7h-13" value="&lt;b&gt;&lt;u&gt;:UserBoard&lt;/u&gt;&lt;/b&gt;" style="html=1;whiteSpace=wrap;" vertex="1" parent="1">
          <mxGeometry x="490" y="290" width="110" height="50" as="geometry" />
        </mxCell>
        <mxCell id="d96rSbsweA4EqB9IWG7h-15" value="8. 上传机票信息" style="html=1;verticalAlign=bottom;endArrow=block;elbow=vertical;rounded=0;" edge="1" parent="1">
          <mxGeometry x="-0.4" y="11" width="80" relative="1" as="geometry">
            <mxPoint x="330" y="360" as="sourcePoint" />
            <mxPoint x="440" y="330" as="targetPoint" />
            <mxPoint as="offset" />
          </mxGeometry>
        </mxCell>
        <mxCell id="d96rSbsweA4EqB9IWG7h-19" value="9.订票成功" style="html=1;verticalAlign=bottom;endArrow=block;elbow=vertical;rounded=0;" edge="1" parent="1">
          <mxGeometry x="-0.4483" y="-24" width="80" relative="1" as="geometry">
            <mxPoint x="420" y="240" as="sourcePoint" />
            <mxPoint x="350" y="210" as="targetPoint" />
            <mxPoint as="offset" />
          </mxGeometry>
        </mxCell>
      </root>
    </mxGraphModel>
  </diagram>
</mxfile>
